<svg width="28" height="28" viewBox="0 0 28 28" fill="none" xmlns="http://www.w3.org/2000/svg">
<path d="M14.5651 2.97826C14.5651 2.60898 14.2749 2.31884 13.9057 2.31884C13.5364 2.31884 13.2463 2.60898 13.2463 2.97826V4.99609C10.2789 5.3258 7.97092 7.83159 7.97092 10.8913V18.6857L5.87397 20.7826H21.9375L19.8405 18.6857V10.8913C19.8405 7.83159 17.5325 5.3258 14.5651 4.99609V2.97826ZM13.9057 1C15.0003 1 15.884 1.88362 15.884 2.97826V3.91463C18.9305 4.77189 21.1593 7.5942 21.1593 10.8913V18.145L25.1158 22.1015H2.69556L6.65208 18.145V10.8913C6.65208 7.5942 8.88092 4.77189 11.9274 3.91463V2.97826C11.9274 1.88362 12.8111 1 13.9057 1ZM13.9057 26.058C12.3099 26.058 10.9779 24.9237 10.6745 23.4203H12.0461C12.3099 24.1852 13.0485 24.7391 13.9057 24.7391C14.7629 24.7391 15.5015 24.1852 15.7653 23.4203H17.1369C16.8336 24.9237 15.5015 26.058 13.9057 26.058Z" fill="#0A0A0A"/>
</svg>
